# xmcd
#
# Track frame offsets: 
#        150
#        5928
#        20859
#        43090
#        74087
#        107653
#        134659
#        152332
#        175563
#        196671
#        209404
#        237161
#        249072
#
# Disc length: 3711 seconds
#
# Revision: 0
# Processed by: cddbd v1.5.2PL0 Copyright (c) Steve Scherf et al.
# Submitted via: ExactAudioCopy v0.99pb3
#
DISCID=b10e7d0d
DTITLE=Paul Filipowicz - Live - Chicken Wire
DYEAR=2007
DGENRE=Blues
TTITLE0=Texas Strut
TTITLE1=K Buster
TTITLE2=Most Dogs
TTITLE3=Chickenwire
TTITLE4=Fire Fly
TTITLE5=Guitarman
TTITLE6=Metro Line Mamba Taka Mamba
TTITLE7=Chinatown
TTITLE8=Hot Chill
TTITLE9=She Used To Be My Baby
TTITLE10=Serves Me Right To Suffer
TTITLE11=Mongolian Twist
TTITLE12=10,000 Footprints
EXTD=
EXTT0=
EXTT1=
EXTT2=
EXTT3=
EXTT4=
EXTT5=
EXTT6=
EXTT7=
EXTT8=
EXTT9=
EXTT10=
EXTT11=
EXTT12=
PLAYORDER=
